# xmcd CD database file
#
# Track frame offsets:
#	180
#	8699
#	23338
#	35093
#	47828
#	67598
#	80186
#	88636
#	102670
#	112583
#	128690
#	141317
#	158925
#	168595
#	179480
#	192531
#	207605
#	225202
#
# Disc length: 3216 seconds
#
# Revision: 0
# Processed by: cddbd v1.4PL0 Copyright (c) Steve Scherf et al.
# Submitted via: CDex 1.50Beta7
#
DISCID=ed0c8e12
DTITLE=United States Air Force Band Of The Rockies - Wild Blue Country
DYEAR=1900
DGENRE=Country
TTITLE0=Down In The Valley
TTITLE1=Back In Blue
TTITLE2=What You Gonna Do With A Cowboy
TTITLE3=Except For Monday
TTITLE4=The Mississippi Squirrel Revival
TTITLE5=Mountain Of Love
TTITLE6=Diggy Diggy Lo
TTITLE7=Sweet Dreams
TTITLE8=Against The Grain
TTITLE9=Some Gave All
TTITLE10=Bowtie
TTITLE11=The Auctioneer
TTITLE12=This Heart Of Mine
TTITLE13=Hopelessly Yours
TTITLE14=Muddy Water
TTITLE15=Cool Water
TTITLE16=All Night Long
TTITLE17=U.S. Veterans
EXTD=
EXTT0=
EXTT1=
EXTT2=
EXTT3=
EXTT4=
EXTT5=
EXTT6=
EXTT7=
EXTT8=
EXTT9=
EXTT10=
EXTT11=
EXTT12=
EXTT13=
EXTT14=
EXTT15=
EXTT16=
EXTT17=
PLAYORDER=
